<?xml version="1.0" encoding="utf-8"?>
<!-- Generator: Adobe Illustrator 23.0.0, SVG Export Plug-In . SVG Version: 6.00 Build 0)  -->
<svg version="1.1" id="Layer_1" xmlns="http://www.w3.org/2000/svg" xmlns:xlink="http://www.w3.org/1999/xlink" x="0px" y="0px"
	 viewBox="0 0 20 20" style="enable-background:new 0 0 20 20;" xml:space="preserve">
<style type="text/css">
	.st0{fill:#848484;}
</style>
<path class="st0" d="M10,0C4.5,0,0,4.5,0,10s4.5,10,10,10s10-4.5,10-10S15.5,0,10,0z M6.6,7.3c0-1.9,1.5-3.4,3.4-3.4
	s3.4,1.5,3.4,3.4v1.3h-1.5V7.3c0-1.1-0.9-1.9-1.9-1.9S8.1,6.3,8.1,7.3v1.4H6.6V7.3z M14.6,14.7H5.3V13h9.3V14.7z M14.6,11.7H5.3V10
	h9.3V11.7z"/>
</svg>
